<svg width="15" height="15" viewBox="0 0 15 15" fill="none" xmlns="http://www.w3.org/2000/svg">
<g clip-path="url(#clip0_110_123)">
<path d="M14.5 7.75247C14.5 3.8865 11.366 0.752472 7.5 0.752472C3.63403 0.752472 0.5 3.88645 0.5 7.75247C0.5 11.2463 3.05981 14.1423 6.40625 14.6674V9.77591H4.62891V7.75247H6.40625V6.21028C6.40625 4.45591 7.45133 3.48685 9.05023 3.48685C9.81612 3.48685 10.6172 3.62357 10.6172 3.62357V5.34622H9.73453C8.86489 5.34622 8.59375 5.88582 8.59375 6.43942V7.75247H10.5352L10.2248 9.77591H8.59375V14.6674C11.9402 14.1423 14.5 11.2464 14.5 7.75247Z" fill="#1877F2"/>
<path d="M10.2248 9.77591L10.5352 7.75247H8.59375V6.43942C8.59375 5.88577 8.86495 5.34622 9.73453 5.34622H10.6172V3.62357C10.6172 3.62357 9.81612 3.48685 9.05023 3.48685C7.45133 3.48685 6.40625 4.45591 6.40625 6.21028V7.75247H4.62891V9.77591H6.40625V14.6674C6.76807 14.7241 7.13376 14.7526 7.5 14.7525C7.86624 14.7526 8.23193 14.7241 8.59375 14.6674V9.77591H10.2248Z" fill="white"/>
</g>
<defs>
<clipPath id="clip0_110_123">
<rect width="14" height="14" fill="white" transform="translate(0.5 0.752472)"/>
</clipPath>
</defs>
</svg>
