<svg width="15" height="15" viewBox="0 0 15 15" fill="none" xmlns="http://www.w3.org/2000/svg">
<g clip-path="url(#clip0_110_118)">
<path d="M14.3331 7.88343C14.3331 7.30986 14.2866 6.8913 14.1859 6.45724H7.63623V9.04607H11.4807C11.4032 9.68943 10.9847 10.6583 10.0545 11.3094L10.0415 11.396L12.1124 13.0003L12.2559 13.0146C13.5735 11.7977 14.3331 10.0072 14.3331 7.88343Z" fill="#4285F4"/>
<path d="M7.63629 14.7044C9.51977 14.7044 11.101 14.0843 12.2559 13.0147L10.0546 11.3094C9.46553 11.7202 8.67491 12.007 7.63629 12.007C5.79155 12.007 4.22585 10.7901 3.66772 9.10812L3.58591 9.11507L1.43258 10.7816L1.40442 10.8598C2.55156 13.1386 4.90789 14.7044 7.63629 14.7044Z" fill="#34A853"/>
<path d="M3.66766 9.10813C3.52039 8.67408 3.43516 8.20898 3.43516 7.72844C3.43516 7.24784 3.52039 6.7828 3.65991 6.34874L3.65601 6.2563L1.4757 4.56305L1.40436 4.59698C0.931568 5.54262 0.660278 6.60454 0.660278 7.72844C0.660278 8.85234 0.931568 9.9142 1.40436 10.8598L3.66766 9.10813Z" fill="#FBBC05"/>
<path d="M7.63629 3.44982C8.9462 3.44982 9.8298 4.01565 10.3336 4.48849L12.3024 2.56622C11.0933 1.44232 9.51977 0.752472 7.63629 0.752472C4.90789 0.752472 2.55156 2.31817 1.40442 4.59697L3.65997 6.34873C4.22585 4.66675 5.79155 3.44982 7.63629 3.44982Z" fill="#EB4335"/>
</g>
<defs>
<clipPath id="clip0_110_118">
<rect width="13.6794" height="14" fill="white" transform="translate(0.660278 0.752472)"/>
</clipPath>
</defs>
</svg>
