<svg width="36" height="34" viewBox="0 0 36 34" fill="none" xmlns="http://www.w3.org/2000/svg">
<path d="M4.73571 27.8014C4.73571 27.8014 11.0844 22.2186 16.0864 21.993C20.4535 21.796 22.2995 25.3743 26.6675 25.553C29.3957 25.6645 33.5933 24.6161 33.5933 24.6161C33.5933 24.6161 28.5913 33.6098 19.5493 33.9845C10.5072 34.3593 4.73571 27.8014 4.73571 27.8014Z" fill="#7BB062"/>
<path d="M4.73571 27.8014C4.73571 27.8014 11.0844 22.2186 16.0864 21.993C20.4535 21.796 22.2995 25.3743 26.6675 25.553C29.3957 25.6645 33.5933 24.6161 33.5933 24.6161C33.5933 24.6161 34.9637 22.4296 35.3247 20.8609C35.7191 19.1473 35.3247 16.3641 35.3247 16.3641C35.3247 16.3641 27.616 21.3215 22.0502 21.423C16.2036 21.5297 13.8356 15.9137 8.00623 16.3641C5.11524 16.5874 0.503253 18.3621 0.503253 18.3621C0.503253 18.3621 0.78699 21.8917 1.65757 23.8588C2.44368 25.6351 4.73571 27.8014 4.73571 27.8014Z" fill="#8DBB77"/>
<path d="M0.503253 18.3621C0.503253 18.3621 5.11524 16.5874 8.00623 16.3641C13.8356 15.9137 16.2036 21.5297 22.0502 21.423C27.616 21.3215 35.3247 16.3641 35.3247 16.3641C35.3247 16.3641 30.2916 15.713 27.2446 14.6778C23.021 13.2427 21.7067 9.49067 17.2406 9.24407C12.7689 8.99717 10.9825 12.4124 6.65953 13.5535C4.44103 14.1392 0.693816 14.6147 0.693816 14.6147C0.693816 14.6147 0.470655 15.9213 0.503253 16.7388C0.530133 17.4129 0.503253 18.3621 0.503253 18.3621Z" fill="#A7CA96"/>
<path d="M0.693816 14.6147C0.693816 14.6147 4.44103 14.1392 6.65953 13.5535C10.9825 12.4124 12.7689 8.99717 17.2406 9.24407C21.7067 9.49067 23.021 13.2427 27.2446 14.6778C30.2916 15.713 35.3247 16.3641 35.3247 16.3641C35.3247 16.3641 34.4791 12.9779 33.5933 10.9304C32.7318 8.93918 30.8999 6.05881 30.8999 6.05881C30.8999 6.05881 23.9523 9.06658 19.5493 8.11986C16.5629 7.47774 15.6358 5.07425 12.6234 4.55986C9.71376 4.06299 5.12048 5.4967 5.12048 5.4967C5.12048 5.4967 3.07385 7.97066 2.23472 9.80617C1.41189 11.606 0.693816 14.6147 0.693816 14.6147Z" fill="#C5DCBA"/>
<path d="M5.12048 5.4967C5.12048 5.4967 9.71376 4.06299 12.6234 4.55986C15.6358 5.07425 16.5629 7.47774 19.5493 8.11986C23.9523 9.06658 30.8999 6.05881 30.8999 6.05881C30.8999 6.05881 26.4751 0.812495 19.5493 0.0630176C12.6234 -0.68646 5.12048 5.4967 5.12048 5.4967Z" fill="#E5EFE0"/>
</svg>
