<svg width="179" height="35" viewBox="0 0 179 35" fill="none" xmlns="http://www.w3.org/2000/svg">
<path d="M4.73571 27.8014C4.73571 27.8014 11.0844 22.2186 16.0864 21.993C20.4535 21.796 22.2995 25.3743 26.6675 25.553C29.3957 25.6645 33.5933 24.6161 33.5933 24.6161C33.5933 24.6161 28.5913 33.6098 19.5493 33.9845C10.5072 34.3593 4.73571 27.8014 4.73571 27.8014Z" fill="#7BB062"/>
<path d="M4.73571 27.8014C4.73571 27.8014 11.0844 22.2186 16.0864 21.993C20.4535 21.796 22.2995 25.3743 26.6675 25.553C29.3957 25.6645 33.5933 24.6161 33.5933 24.6161C33.5933 24.6161 34.9637 22.4296 35.3247 20.8609C35.7191 19.1473 35.3247 16.3641 35.3247 16.3641C35.3247 16.3641 27.616 21.3215 22.0502 21.423C16.2036 21.5297 13.8356 15.9137 8.00623 16.3641C5.11524 16.5874 0.503253 18.3621 0.503253 18.3621C0.503253 18.3621 0.78699 21.8917 1.65757 23.8588C2.44368 25.6351 4.73571 27.8014 4.73571 27.8014Z" fill="#8DBB77"/>
<path d="M0.503253 18.3621C0.503253 18.3621 5.11524 16.5874 8.00623 16.3641C13.8356 15.9137 16.2036 21.5297 22.0502 21.423C27.616 21.3215 35.3247 16.3641 35.3247 16.3641C35.3247 16.3641 30.2916 15.713 27.2446 14.6778C23.021 13.2427 21.7067 9.49067 17.2406 9.24407C12.7689 8.99717 10.9825 12.4124 6.65953 13.5535C4.44103 14.1392 0.693816 14.6147 0.693816 14.6147C0.693816 14.6147 0.470655 15.9213 0.503253 16.7388C0.530133 17.4129 0.503253 18.3621 0.503253 18.3621Z" fill="#A7CA96"/>
<path d="M0.693816 14.6147C0.693816 14.6147 4.44103 14.1392 6.65953 13.5535C10.9825 12.4124 12.7689 8.99717 17.2406 9.24407C21.7067 9.49067 23.021 13.2427 27.2446 14.6778C30.2916 15.713 35.3247 16.3641 35.3247 16.3641C35.3247 16.3641 34.4791 12.9779 33.5933 10.9304C32.7318 8.93918 30.8999 6.05881 30.8999 6.05881C30.8999 6.05881 23.9523 9.06658 19.5493 8.11986C16.5629 7.47774 15.6358 5.07425 12.6234 4.55986C9.71376 4.06299 5.12048 5.4967 5.12048 5.4967C5.12048 5.4967 3.07385 7.97066 2.23472 9.80617C1.41189 11.606 0.693816 14.6147 0.693816 14.6147Z" fill="#C5DCBA"/>
<path d="M5.12048 5.4967C5.12048 5.4967 9.71376 4.06299 12.6234 4.55986C15.6358 5.07425 16.5629 7.47774 19.5493 8.11986C23.9523 9.06658 30.8999 6.05881 30.8999 6.05881C30.8999 6.05881 26.4751 0.812495 19.5493 0.0630176C12.6234 -0.68646 5.12048 5.4967 5.12048 5.4967Z" fill="#E5EFE0"/>
<path d="M60.1309 8.28711V27H57.084V18.5703H50.0254V16.4883H57.084V8.28711H60.1309ZM45.8867 8.28711H48.9844V27H45.8867V8.28711ZM80.1895 27H77.041L72.1914 12.9844L67.291 27H64.1172L70.668 8.3125H73.6895L80.1895 27ZM73.8672 21.0586L74.6035 23.1152H69.7539L70.4648 21.0586H73.8672ZM94.5605 8.28711H97.6582V27H94.5605L88.2637 15.9297V10.0898L94.5605 21.1855V8.28711ZM84.125 27V8.28711H87.2227V27H84.125ZM102.406 8.28711H105.453V27H102.406V8.28711ZM108.043 8.28711C109.617 8.28711 110.997 8.54102 112.182 9.04883C113.383 9.53971 114.374 10.1999 115.152 11.0293C115.948 11.8587 116.54 12.8066 116.93 13.873C117.319 14.9225 117.514 16.0059 117.514 17.123C117.514 18.6634 117.344 19.9837 117.006 21.084C116.684 22.1673 116.27 23.0814 115.762 23.8262C115.254 24.554 114.678 25.1296 114.035 25.5527C113.409 25.9759 112.799 26.2975 112.207 26.5176C111.615 26.7207 111.073 26.8561 110.582 26.9238C110.091 26.9746 109.727 27 109.49 27H106.494V24.7656H108.475C110.54 24.7656 112.029 24.1055 112.943 22.7852C113.857 21.4648 114.314 19.5521 114.314 17.0469C114.314 16.2682 114.221 15.498 114.035 14.7363C113.849 13.9746 113.485 13.2891 112.943 12.6797C112.419 12.0534 111.699 11.554 110.785 11.1816C109.871 10.7923 108.686 10.5977 107.23 10.5977H106.494V8.28711H108.043ZM130.463 11.1816C130.378 11.1478 130.277 11.0885 130.158 11.0039C130.04 10.9193 129.87 10.8431 129.65 10.7754C129.43 10.6908 129.151 10.623 128.812 10.5723C128.474 10.5215 128.042 10.513 127.518 10.5469V7.98242C128.262 7.99935 129.016 8.08398 129.777 8.23633C130.556 8.37174 131.182 8.5918 131.656 8.89648C131.555 9.11654 131.436 9.36198 131.301 9.63281C131.165 9.88672 131.038 10.1322 130.92 10.3691C130.801 10.5892 130.7 10.7754 130.615 10.9277C130.531 11.0801 130.48 11.1647 130.463 11.1816ZM121.703 13.2129C121.703 12.4681 121.83 11.7995 122.084 11.207C122.338 10.6146 122.676 10.0983 123.1 9.6582C123.54 9.20117 124.048 8.8457 124.623 8.5918C125.215 8.32096 125.833 8.14323 126.477 8.05859V10.7246C125.935 10.9108 125.486 11.2409 125.131 11.7148C124.775 12.1719 124.598 12.6374 124.598 13.1113C124.598 13.7715 124.775 14.3047 125.131 14.7109C125.486 15.1172 125.935 15.4727 126.477 15.7773V18.6719C125.918 18.401 125.359 18.1133 124.801 17.8086C124.242 17.487 123.734 17.1146 123.277 16.6914C122.82 16.2682 122.439 15.7773 122.135 15.2188C121.847 14.6602 121.703 13.9915 121.703 13.2129ZM122.109 23.5723C122.346 23.7077 122.643 23.8431 122.998 23.9785C123.37 24.097 123.751 24.2155 124.141 24.334C124.53 24.4355 124.919 24.5202 125.309 24.5879C125.698 24.6556 126.062 24.6895 126.4 24.6895H126.477V27.1016H126.426C126.02 27.1016 125.596 27.0762 125.156 27.0254C124.733 26.9915 124.301 26.9238 123.861 26.8223C123.421 26.7207 122.998 26.5853 122.592 26.416C122.202 26.2298 121.864 26.0098 121.576 25.7559L122.109 23.5723ZM127.518 16.2852C128.076 16.5391 128.643 16.8099 129.219 17.0977C129.811 17.3854 130.344 17.7409 130.818 18.1641C131.292 18.5703 131.682 19.0697 131.986 19.6621C132.291 20.2546 132.443 20.9909 132.443 21.8711C132.443 22.4805 132.325 23.0729 132.088 23.6484C131.868 24.224 131.546 24.7487 131.123 25.2227C130.717 25.6797 130.209 26.069 129.6 26.3906C128.99 26.7122 128.296 26.9238 127.518 27.0254V24.5879C128.906 24.2493 129.6 23.3268 129.6 21.8203C129.6 21.2279 129.405 20.737 129.016 20.3477C128.626 19.9583 128.127 19.5944 127.518 19.2559V16.2852ZM145.418 17.25C145.418 18.5534 145.503 19.6621 145.672 20.5762C145.841 21.4733 146.087 22.2181 146.408 22.8105C146.73 23.3861 147.111 23.8177 147.551 24.1055C148.008 24.3932 148.516 24.5625 149.074 24.6133V27.127C148.042 27.0592 147.102 26.8138 146.256 26.3906C145.426 25.9505 144.724 25.3327 144.148 24.5371C143.573 23.7246 143.124 22.7344 142.803 21.5664C142.481 20.3984 142.32 19.0612 142.32 17.5547V8.28711H145.418V17.25ZM156.869 8.28711V17.5547C156.869 19.0612 156.708 20.3984 156.387 21.5664C156.065 22.7344 155.608 23.7246 155.016 24.5371C154.44 25.3327 153.738 25.9505 152.908 26.3906C152.079 26.8138 151.148 27.0592 150.115 27.127V24.6133C150.674 24.5456 151.173 24.3763 151.613 24.1055C152.07 23.8177 152.46 23.3861 152.781 22.8105C153.103 22.235 153.348 21.4987 153.518 20.6016C153.704 19.6875 153.797 18.5703 153.797 17.25V8.28711H156.869ZM161.262 8.28711H164.309V27H161.262V8.28711ZM166.645 8.28711C167.44 8.28711 168.227 8.41406 169.006 8.66797C169.785 8.92188 170.479 9.30273 171.088 9.81055C171.714 10.3184 172.214 10.9362 172.586 11.6641C172.975 12.375 173.17 13.179 173.17 14.0762C173.17 15.0241 173.009 15.8874 172.688 16.666C172.366 17.4277 171.917 18.071 171.342 18.5957C170.766 19.1204 170.072 19.5267 169.26 19.8145C168.447 20.1022 167.55 20.2461 166.568 20.2461H165.35V18.0117H167.102C167.474 18.0117 167.838 17.9525 168.193 17.834C168.566 17.6986 168.904 17.487 169.209 17.1992C169.514 16.9115 169.759 16.5137 169.945 16.0059C170.132 15.4811 170.225 14.8379 170.225 14.0762C170.225 13.7715 170.182 13.4245 170.098 13.0352C170.013 12.6289 169.835 12.248 169.564 11.8926C169.311 11.5202 168.947 11.2155 168.473 10.9785C167.999 10.7246 167.372 10.5977 166.594 10.5977H165.35V8.28711H166.645Z" fill="white" fill-opacity="0.9"/>
</svg>
